<?xml version="1.0" encoding="utf-8"?>
<!-- Generator: Adobe Illustrator 22.1.0, SVG Export Plug-In . SVG Version: 6.00 Build 0)  -->
<svg version="1.1" id="레이어_1" xmlns="http://www.w3.org/2000/svg" xmlns:xlink="http://www.w3.org/1999/xlink" x="0px"
	 y="0px" viewBox="0 0 170.1 170.1" style="enable-background:new 0 0 170.1 170.1;" xml:space="preserve">
<style type="text/css">
	.st0{fill:#5E5E5E;}
</style>
<g>
	<g>
		<path class="st0" d="M70.6,47.1c-1.1,0.9-1.4,2.4-0.5,3.5c0.8,1.1,2.4,1.3,3.6,0.5c1.1-0.9,1.4-2.4,0.5-3.6
			C73.4,46.5,71.8,46.3,70.6,47.1z"/>
		<path class="st0" d="M64.6,54.9c-0.8-1.1-2.4-1.3-3.6-0.5c-1.1,0.9-1.4,2.4-0.5,3.6c0.8,1.1,2.4,1.3,3.6,0.5
			C65.2,57.6,65.5,56,64.6,54.9z"/>
		<path class="st0" d="M55,62.2c-0.8-1.1-2.4-1.3-3.6-0.5c-1.1,0.9-1.4,2.4-0.5,3.6c0.8,1.1,2.4,1.3,3.6,0.5
			C55.7,64.9,55.9,63.3,55,62.2z"/>
		<path class="st0" d="M67.1,43.4c1.2-0.5,1.8-2,1.3-3.2c-0.5-1.3-2-1.9-3.2-1.4c-1.2,0.5-1.8,2-1.3,3.2
			C64.5,43.2,65.9,43.9,67.1,43.4z"/>
		<path class="st0" d="M56.7,47.7c1.2-0.5,1.8-2,1.3-3.2c-0.5-1.3-2-1.9-3.2-1.4c-1.2,0.5-1.8,2-1.3,3.2
			C54,47.6,55.5,48.2,56.7,47.7z"/>
		<path class="st0" d="M44.3,47.3c-1.2,0.5-1.8,2-1.3,3.2c0.5,1.3,2,1.9,3.2,1.4c1.2-0.5,1.8-2,1.3-3.2C47,47.5,45.6,46.8,44.3,47.3
			z"/>
		<path class="st0" d="M33.9,51.7c-1.2,0.5-1.8,2-1.3,3.2c0.5,1.3,2,1.9,3.2,1.4c1.2-0.5,1.8-2,1.3-3.2
			C36.5,51.8,35.1,51.1,33.9,51.7z"/>
		<path class="st0" d="M81.8,58.3c0.9-1.1,0.7-2.7-0.5-3.6c-1.1-0.8-2.7-0.6-3.6,0.5c-0.9,1.1-0.6,2.7,0.5,3.6
			C79.3,59.6,80.9,59.4,81.8,58.3z"/>
		<path class="st0" d="M70.5,64.8c-0.9,1.1-0.7,2.7,0.5,3.6c1.1,0.8,2.7,0.6,3.5-0.5c0.9-1.1,0.7-2.7-0.5-3.6
			C72.9,63.4,71.3,63.7,70.5,64.8z"/>
		<path class="st0" d="M67.2,77.4c0.9-1.1,0.6-2.7-0.5-3.6c-1.1-0.8-2.7-0.6-3.6,0.5c-0.9,1.1-0.7,2.7,0.5,3.6
			C64.8,78.8,66.4,78.6,67.2,77.4z"/>
		<path class="st0" d="M88.8,60.5c-1.3-0.5-2.7,0-3.2,1.3C85,63,85.7,64.4,87,65c1.3,0.5,2.7,0,3.2-1.3
			C90.7,62.5,90.1,61.1,88.8,60.5z"/>
		<path class="st0" d="M84.5,71c-1.3-0.5-2.7,0-3.2,1.3c-0.5,1.2,0.1,2.6,1.4,3.2c1.3,0.5,2.7,0,3.2-1.3
			C86.4,72.9,85.8,71.5,84.5,71z"/>
		<path class="st0" d="M80.2,81.4c-1.3-0.5-2.7,0-3.3,1.3c-0.5,1.2,0.1,2.6,1.4,3.2c1.3,0.5,2.7,0,3.2-1.3
			C82.1,83.4,81.4,81.9,80.2,81.4z"/>
		<path class="st0" d="M75.9,91.8c-1.3-0.5-2.7,0-3.3,1.3c-0.5,1.2,0.1,2.7,1.4,3.2c1.3,0.5,2.7,0,3.2-1.3
			C77.8,93.8,77.1,92.4,75.9,91.8z"/>
		<path class="st0" d="M116.4,16.2c-6.4,0-12.2,2.6-16.4,6.7l0,0l-4.7,4.6l6,6l4.6-4.5l0,0c2.7-2.7,6.3-4.3,10.4-4.3
			c4.1,0,7.7,1.6,10.4,4.3c2.7,2.7,4.3,6.3,4.3,10.4v75.5h8.5V39.4C139.6,26.6,129.2,16.2,116.4,16.2z"/>
		<polygon class="st0" points="99.5,35.3 93.5,29.3 92.9,28.7 71.8,28.7 67.1,33.4 95.5,61.8 100.2,57.1 100.2,36 		"/>
	</g>
	<g>
		<path class="st0" d="M76.9,138c0,3.9,2,7.8,5.3,9.4l-1.5,2c-2.4-1.2-4.1-3.5-5-6.4c-0.9,3-2.7,5.6-5.1,6.8l-1.6-2
			c3.4-1.7,5.5-5.9,5.5-9.9v-3.6h2.5V138z M86.1,140v4.3h3.3v2h-3.3v8h-2.5v-21.7h2.5v5.3h3.3v2H86.1z"/>
		<path class="st0" d="M105.3,145c-2,0.4-4.1,0.6-6.1,0.7v7.9h-2.5v-7.8c-1.9,0.1-3.7,0.1-5.4,0.1l-0.3-2c4.1,0,9.5,0,14.1-0.7
			L105.3,145z M92.6,138c0-2.6,2.3-4.3,5.5-4.3c3.2,0,5.5,1.8,5.5,4.3c0,2.6-2.3,4.4-5.5,4.4C94.9,142.4,92.6,140.6,92.6,138z
			 M94.9,138c0,1.5,1.3,2.4,3.2,2.4c1.8,0,3.1-0.9,3.1-2.4c0-1.5-1.3-2.4-3.1-2.4C96.2,135.6,94.9,136.5,94.9,138z M109.2,132.7
			v21.7h-2.5v-5.1H102v-1.9h4.6v-14.7H109.2z"/>
		<path class="st0" d="M124.9,143.3c-2.5-0.8-4.3-2.5-5.3-4.6c-1,2.3-2.8,4.1-5.4,5l-1.2-2c3.4-1.1,5.4-3.9,5.4-6.9v-1.6h2.5v1.6
			c0,2.8,1.9,5.4,5.3,6.5L124.9,143.3z M131.5,152.2v1.9h-14.8v-5.6h11.7v-1.8h-11.8v-1.9h14.2v5.5h-11.7v1.9H131.5z M130.8,143.8
			h-2.5v-11.1h2.5V143.8z"/>
	</g>
</g>
</svg>
