<?xml version="1.0" encoding="utf-8"?>
<!-- Generator: Adobe Illustrator 22.1.0, SVG Export Plug-In . SVG Version: 6.00 Build 0)  -->
<svg version="1.1" id="레이어_1" xmlns="http://www.w3.org/2000/svg" xmlns:xlink="http://www.w3.org/1999/xlink" x="0px"
	 y="0px" viewBox="0 0 170.1 170.1" style="enable-background:new 0 0 170.1 170.1;" xml:space="preserve">
<style type="text/css">
	.st0{fill:#5E5E5E;}
</style>
<g>
	<path class="st0" d="M128,76.8V33.8c0-7-5.7-12.7-12.7-12.7h0c-7,0-12.7,5.7-12.7,12.7v43.1c-1.7,1.2-3.2,2.6-4.5,4.2v-5.6L94,71.3
		c2.1-3,3.4-6.6,3.4-10.6c0-3.9-1.3-7.6-3.4-10.6l2.8-2.8v-8.9l-7.3,7.3c-2.2-1.5-4.7-2.6-7.4-3.1V31.9l12.6-12.6l-4.4-4.4L82.1,23
		v-8.6h-6.3V23l-8.1-8.1l-4.4,4.4l12.6,12.6v10.7c-2.7,0.5-5.3,1.5-7.4,3.1l-7.5-7.5V20.3l-6.3,0v11.5l-6.1-6.1L44,30.2l6.1,6.1
		H38.6l0,6.3h17.8l7.5,7.5c-1.5,2.2-2.6,4.7-3.1,7.4H50.1L37.6,45l-4.4,4.4l8.1,8.1h-8.6v6.3h8.6l-8.1,8.1l4.4,4.4l12.6-12.6h10.7
		c0.5,2.7,1.5,5.3,3.1,7.4l-7.5,7.5H38.6l0,6.3h11.5L44,91.1l4.4,4.4l6.1-6.1V101h6.3V83.2l7.5-7.5c2.2,1.5,4.7,2.6,7.4,3.1v10.7
		L63.2,102l4.4,4.4l8.1-8.1v8.6h6.3v-8.6l5.7,5.7v-8.9l-5.7-5.7V78.8c2.7-0.5,5.3-1.5,7.4-3.1l7.3,7.3c-2.2,3.4-3.5,7.5-3.5,11.9
		c0,12.2,9.9,22.1,22.1,22.1c12.2,0,22.1-9.9,22.1-22.1C137.4,87.4,133.7,80.8,128,76.8z M115.3,109.1c-8,0-14.4-6.5-14.4-14.4
		c0-6,3.7-11.1,8.9-13.3V61.3h11.1v20.1c5.2,2.2,8.9,7.3,8.9,13.3C129.8,102.6,123.3,109.1,115.3,109.1z"/>
	<g>
		<path class="st0" d="M41.6,146.3c-2.8,0.6-5.1,0.7-7.7,0.7h-1.4v-9.6H35v7.6c2.1,0,4.1-0.2,6.4-0.6L41.6,146.3z M50,153.2
			c0,2.6-2.9,4.2-7.3,4.2c-4.5,0-7.4-1.6-7.4-4.2c0-2.6,2.9-4.2,7.4-4.2C47.1,149,50,150.6,50,153.2z M47.5,153.2
			c0-1.4-1.8-2.2-4.8-2.2c-3,0-4.9,0.8-4.9,2.2s1.8,2.2,4.9,2.2C45.7,155.4,47.5,154.6,47.5,153.2z M45,148h-2.3v-11.9H45v5.1h2.5
			v-5.5h2.4v13.1h-2.4v-5.5H45V148z"/>
		<path class="st0" d="M66.2,146.6c-3.6,0.7-6.9,0.9-10.1,0.9h-1.8v-10.4h2.5v8.3c2.8,0,5.8-0.3,9-0.9L66.2,146.6z M59.1,154.9H71v2
			H56.6v-7.1h2.5V154.9z M73.4,142v2.1h-3.1v7.3h-2.5v-15.6h2.5v6.3H73.4z"/>
		<path class="st0" d="M86.2,147.1H76V137h2.5v3h5.3v-3h2.4V147.1z M92.4,153.2c0,2.6-2.8,4.1-7.2,4.1c-4.5,0-7.2-1.5-7.2-4.1
			c0-2.6,2.8-4.1,7.2-4.1C89.6,149.1,92.4,150.7,92.4,153.2z M83.7,142h-5.3v3.2h5.3V142z M89.9,153.2c0-1.4-1.8-2.2-4.8-2.2
			s-4.8,0.8-4.8,2.2c0,1.4,1.8,2.2,4.8,2.2S89.9,154.7,89.9,153.2z M95.2,141v2h-3.1v5.6h-2.5v-12.9h2.5v5.3H95.2z"/>
		<path class="st0" d="M105.1,141c0,4,2.2,8,5.6,9.5l-1.4,2c-2.5-1.2-4.4-3.6-5.4-6.5c-1,3.1-2.9,5.7-5.5,7l-1.5-2.1
			c3.5-1.6,5.7-5.7,5.7-9.9v-3.6h2.5V141z M114.9,135.7v21.7h-2.5v-21.7H114.9z"/>
		<path class="st0" d="M130.4,146.4c-2.4-0.8-4.1-2.4-5-4.4c-1,2.3-2.8,4-5.3,4.9l-1.3-1.9c3.4-1.1,5.3-3.8,5.3-6.8v-1.8h2.5v1.8
			c0,2.7,1.9,5.3,5.1,6.3L130.4,146.4z M137.6,155.1v1.9h-14.8v-5.6h11.6v-1.7h-11.7v-1.9h14.1v5.5h-11.6v1.8H137.6z M134.4,141.3
			H130v-2h4.4v-3.6h2.5v11.1h-2.5V141.3z"/>
	</g>
</g>
</svg>
